<svg xmlns="http://www.w3.org/2000/svg" viewBox="0 0 48 48" width="48" height="48">
  <!-- Background -->
  <rect width="48" height="48" rx="10" fill="#1a73e8"/>
  
  <!-- Puffy cloud shape (higher) -->
  <path d="M24 12 C27 12, 29.5 13.5, 31 16 C33 15, 35.5 16, 37 18 C39.5 18, 41.5 20, 41.5 22.5 C41.5 25, 39.5 27, 37 27 L13 27 C10 27, 8 25, 8 22 C8 19, 10 17, 13 17 C13 14, 16 11, 19 11 C20.5 11, 22 11.5, 23 12.5 C23.3 12.2, 23.6 12, 24 12 Z" fill="#fff"/>
  
  <!-- Arrow pointing down (lower) -->
  <path d="M21 36 L24 39 L27 36" stroke="#fff" stroke-width="2.5" fill="none" stroke-linecap="round" stroke-linejoin="round"/>
  <line x1="24" y1="30" x2="24" y2="39" stroke="#fff" stroke-width="2.5" stroke-linecap="round"/>
</svg>
