<svg xmlns="http://www.w3.org/2000/svg" viewBox="0 0 16 16" width="16" height="16">
  <!-- Background -->
  <rect width="16" height="16" rx="3" fill="#1a73e8"/>
  
  <!-- Puffy cloud shape (simplified for small size) -->
  <path d="M8 3 C9 3, 10 3.5, 10.5 4.5 C11 4, 11.5 4.5, 12 5 C12.5 5, 13 5.5, 13 6.5 C13 7.5, 12.5 8, 12 8 L4 8 C3 8, 2.5 7.5, 2.5 6.5 C2.5 5.5, 3 5, 4 5 C4 4, 5 3, 6 3 C6.5 3, 7 3.2, 7.5 3.5 C7.7 3.2, 7.8 3, 8 3 Z" fill="#fff"/>
  
  <!-- Arrow pointing down -->
  <path d="M6.5 11 L8 12.5 L9.5 11" stroke="#fff" stroke-width="1.2" fill="none" stroke-linecap="round" stroke-linejoin="round"/>
  <line x1="8" y1="9.5" x2="8" y2="12.5" stroke="#fff" stroke-width="1.2" stroke-linecap="round"/>
</svg>
